<svg xmlns="http://www.w3.org/2000/svg" viewBox="0 0 200 200" role="img" aria-label="Built For Them icon">
<g id="icon">
<path fill="#102f5c" d="M100 181C79 160 18 116 18 65 18 28 62 11 100 50c38-39 82-22 82 15 0 51-61 95-82 116z"/>
<g transform="translate(44 39) rotate(-43 55 48)"><rect x="48" y="17" width="15" height="84" rx="7" fill="#fffaf0"/><path fill="#fffaf0" d="M33 3a30 30 0 0 0 5 43L17 67l14 14 21-21A30 30 0 0 0 89 19L72 36 58 22 75 5A30 30 0 0 0 33 3z"/></g>
<g transform="translate(78 28) rotate(42 45 60)"><rect x="39" y="3" width="13" height="78" rx="5" fill="#fffaf0"/><path fill="#f47a20" d="M27 75h37a10 10 0 0 1 10 10v43a14 14 0 0 1-14 14H31a14 14 0 0 1-14-14V85a10 10 0 0 1 10-10z"/><rect x="32" y="92" width="5" height="31" rx="2" fill="#102f5c"/><rect x="44" y="92" width="5" height="31" rx="2" fill="#102f5c"/><rect x="56" y="92" width="5" height="31" rx="2" fill="#102f5c"/></g>
</g></svg>