<svg xmlns="http://www.w3.org/2000/svg" viewBox="0 0 820 190" role="img" aria-labelledby="t d">
<title id="t">Built For Them</title><desc id="d">Heart with crossed tools and Built For Them wordmark</desc>
<style>.n{fill:#102f5c}.o{fill:#f47a20}.t{fill:#1499a6}.c{fill:#fffaf0}.w{font-family:Arial,Helvetica,sans-serif;font-weight:900;letter-spacing:1px}</style>
<path class="n" d="M95 164C75 144 18 100 18 54 18 21 57 5 95 41c38-36 77-20 77 13 0 46-57 90-77 110z"/>
<g transform="translate(39 35) rotate(-43 55 50)"><rect x="49" y="17" width="15" height="82" rx="7" class="c"/><path class="c" d="M33 3a29 29 0 0 0 5 42L18 65l14 14 20-20A29 29 0 0 0 88 18L72 34 58 20 74 4A29 29 0 0 0 33 3z"/></g>
<g transform="translate(75 28) rotate(42 45 60)"><rect x="39" y="2" width="13" height="75" rx="5" class="c"/><path class="o" d="M27 72h37a10 10 0 0 1 10 10v41a14 14 0 0 1-14 14H31a14 14 0 0 1-14-14V82a10 10 0 0 1 10-10z"/><rect x="32" y="88" width="5" height="31" rx="2" class="n"/><rect x="44" y="88" width="5" height="31" rx="2" class="n"/><rect x="56" y="88" width="5" height="31" rx="2" class="n"/></g>
<text x="200" y="94" class="w n" font-size="68">BUILT</text><text x="429" y="94" class="w o" font-size="68">FOR</text><text x="573" y="94" class="w t" font-size="68">THEM</text>
<text x="202" y="139" class="n" font-family="Arial,Helvetica,sans-serif" font-size="25">Build with care. Share with love.</text>
</svg>